<svg width="33" height="32" viewBox="0 0 33 32" fill="none" xmlns="http://www.w3.org/2000/svg">
<g clip-path="url(#clip0_3_254)">
<path d="M5.07141 29.7137V15.9994L16.5 4.57086L27.9286 15.9994V29.7137C27.9286 30.9761 26.9052 31.9994 25.6428 31.9994H7.35713C6.09477 31.9994 5.07141 30.9761 5.07141 29.7137Z" fill="url(#paint0_linear_3_254)"/>
<path fill-rule="evenodd" clip-rule="evenodd" d="M14.8837 2.95462C15.7764 2.062 17.2236 2.062 18.1163 2.95462L31.8305 16.6689C32.7231 17.5615 32.7231 19.0088 31.8305 19.9014C30.9379 20.794 29.4906 20.794 28.5981 19.9014L16.5 7.80335L4.40197 19.9014C3.50933 20.794 2.0621 20.794 1.16947 19.9014C0.276843 19.0088 0.276843 17.5615 1.16947 16.6689L14.8837 2.95462Z" fill="url(#paint1_linear_3_254)"/>
</g>
<defs>
<linearGradient id="paint0_linear_3_254" x1="16.5" y1="4.57086" x2="16.5" y2="31.9994" gradientUnits="userSpaceOnUse">
<stop stop-color="#9D3CCB"/>
<stop offset="0.208333" stop-color="#AA84FB" stop-opacity="0.765625"/>
<stop offset="0.541667" stop-color="#6B9FDF" stop-opacity="0.458333"/>
<stop offset="0.776042" stop-color="#83A8D7" stop-opacity="0.673958"/>
<stop offset="1" stop-color="#004396" stop-opacity="0.88"/>
</linearGradient>
<linearGradient id="paint1_linear_3_254" x1="16.5" y1="2.28516" x2="16.5" y2="20.5709" gradientUnits="userSpaceOnUse">
<stop stop-color="#2867C5"/>
<stop offset="1" stop-color="#AA3EDD"/>
</linearGradient>
<clipPath id="clip0_3_254">
<rect width="32" height="32" fill="white" transform="translate(0.5)"/>
</clipPath>
</defs>
</svg>
