<svg width="33" height="32" viewBox="0 0 33 32" fill="none" xmlns="http://www.w3.org/2000/svg">
<path fill-rule="evenodd" clip-rule="evenodd" d="M16.5 0C7.66345 0 0.5 7.16345 0.5 16C0.5 24.8366 7.66345 32 16.5 32C25.3366 32 32.5 24.8366 32.5 16C32.5 7.16345 25.3366 0 16.5 0Z" fill="url(#paint0_linear_3_291)"/>
<path fill-rule="evenodd" clip-rule="evenodd" d="M20.9598 0.629918C19.7879 0.290505 18.5607 0.0814621 17.2949 0.0195312C20.0515 4.37602 21.7578 9.36738 22.2532 14.5716H10.7467C11.2421 9.36738 12.9484 4.37604 15.705 0.0195347C14.4392 0.0814715 13.212 0.290514 12.0402 0.629936C9.73223 4.91264 8.30814 9.66014 7.87767 14.5716H0.562907C0.521265 15.0422 0.5 15.5187 0.5 16.0001C0.5 16.4816 0.521265 16.9581 0.562907 17.4287H7.87767C8.30814 22.3401 9.73223 27.0875 12.0402 31.3703C13.212 31.7097 14.4392 31.9189 15.705 31.9808C12.9484 27.6242 11.2421 22.6329 10.7467 17.4287H22.2532C21.7578 22.6329 20.0515 27.6242 17.2949 31.9808C18.5608 31.9189 19.788 31.7097 20.9598 31.3703C23.2677 27.0875 24.6918 22.3401 25.1222 17.4287H32.4371C32.4787 16.9581 32.5 16.4816 32.5 16.0001C32.5 15.5187 32.4787 15.0422 32.4371 14.5716H25.1222C24.6918 9.66014 23.2677 4.91262 20.9598 0.629918Z" fill="url(#paint1_linear_3_291)"/>
<defs>
<linearGradient id="paint0_linear_3_291" x1="16.5" y1="0" x2="16.5" y2="32" gradientUnits="userSpaceOnUse">
<stop stop-color="#9738E2"/>
<stop offset="0.453125" stop-color="#4C5FE6" stop-opacity="0.5"/>
<stop offset="0.760417" stop-color="#2176E7" stop-opacity="0.216667"/>
<stop offset="1" stop-color="#0D5081"/>
</linearGradient>
<linearGradient id="paint1_linear_3_291" x1="16.5" y1="0.0195312" x2="16.5" y2="31.9808" gradientUnits="userSpaceOnUse">
<stop stop-color="#9738E2"/>
<stop offset="0.453125" stop-color="#4C5FE6" stop-opacity="0.5"/>
<stop offset="0.760417" stop-color="#2176E7" stop-opacity="0.216667"/>
<stop offset="1" stop-color="#0D5081"/>
</linearGradient>
</defs>
</svg>
